<svg width="11" height="10" viewBox="0 0 11 10" fill="none" xmlns="http://www.w3.org/2000/svg">
<path d="M5.53568 0.0730128C5.33151 -0.0243376 5.0943 -0.0243376 4.89012 0.0730128C4.71361 0.15717 4.6163 0.303289 4.56722 0.38345C4.51648 0.466319 4.4644 0.571883 4.41364 0.674777L3.33577 2.85842L0.924746 3.21082C0.81125 3.22739 0.694796 3.24439 0.600339 3.2671C0.508958 3.28908 0.340003 3.3366 0.205548 3.47852C0.0500022 3.6427 -0.0231489 3.86831 0.0064613 4.09253C0.0320567 4.28635 0.140979 4.42397 0.202079 4.49538C0.265238 4.5692 0.349563 4.6513 0.431745 4.73132L2.17564 6.42987L1.76416 8.82901C1.74473 8.94213 1.72481 9.05818 1.71714 9.15506C1.70972 9.24877 1.70254 9.42422 1.79589 9.59608C1.90387 9.79487 2.09581 9.93431 2.31824 9.97554C2.51055 10.0112 2.67519 9.95013 2.76201 9.91411C2.85178 9.87686 2.95599 9.82203 3.05757 9.76858L5.2129 8.63511L7.36824 9.76859C7.46982 9.82203 7.57403 9.87686 7.6638 9.91411C7.75062 9.95013 7.91526 10.0112 8.10756 9.97554C8.33 9.93431 8.52194 9.79487 8.62991 9.59608C8.72326 9.42422 8.71609 9.24877 8.70867 9.15506C8.701 9.05818 8.68107 8.94214 8.66165 8.82903L8.25016 6.42987L9.99408 4.7313C10.0763 4.65129 10.1606 4.5692 10.2237 4.49538C10.2848 4.42397 10.3937 4.28635 10.4193 4.09253C10.449 3.86831 10.3758 3.6427 10.2203 3.47852C10.0858 3.3366 9.91685 3.28908 9.82547 3.2671C9.73101 3.24439 9.61455 3.22739 9.50106 3.21082L7.09003 2.85842L6.01219 0.674815C5.96142 0.571914 5.90933 0.466325 5.85859 0.38345C5.80951 0.303289 5.71219 0.15717 5.53568 0.0730128Z" fill="#231F20"/>
</svg>
